<svg width="64" height="32" viewBox="0 0 64 32" fill="none" xmlns="http://www.w3.org/2000/svg">
<path d="M0 16C0 7.16344 7.16344 0 16 0H48C56.8366 0 64 7.16344 64 16C64 24.8366 56.8366 32 48 32H16C7.16344 32 0 24.8366 0 16Z" fill="white"/>
<path d="M24 18H18V24H14V18H8V14H14V8H18V14H24V18Z" fill="#4F5D75"/>
<path d="M36.048 9.788H33.136V8.172H31.984V9.788H29.04V10.78H36.048V9.788ZM34.208 13.34C34.512 12.764 34.832 11.868 35.136 11.068L34.048 10.812C33.904 11.5 33.536 12.492 33.248 13.132L34.208 13.34ZM31.616 13.116C31.536 12.508 31.264 11.564 30.928 10.844L30 11.084C30.304 11.804 30.56 12.764 30.624 13.388L31.616 13.116ZM35.664 19.532C35.296 19.196 33.744 17.932 33.136 17.484V17.1H36.112V16.092H33.136V14.412H36.24V13.404H28.816V14.412H31.984V16.092H28.864V17.1H31.728C30.928 18.508 29.664 19.948 28.512 20.7C28.768 20.908 29.12 21.292 29.312 21.564C30.208 20.86 31.2 19.724 31.984 18.492V22.684H33.136V18.62C33.808 19.228 34.624 20.012 34.96 20.412L35.664 19.532ZM43.296 13.468H37.952V10.62C39.728 10.268 41.728 9.788 43.088 9.18L42.128 8.3C41.104 8.812 39.312 9.324 37.68 9.676L36.816 9.404V14.972C36.816 17.212 36.592 19.98 34.56 21.964C34.832 22.124 35.264 22.54 35.408 22.796C37.648 20.572 37.952 17.372 37.952 14.988V14.588H40.336V22.62H41.504V14.588H43.296V13.468ZM56.544 17.852V19.084H51.808V17.852H56.544ZM51.808 21.196V19.932H56.544V21.196H51.808ZM50.688 22.716H51.808V22.124H56.544V22.668H57.728V16.94H50.688V22.716ZM51.488 13.004C51.776 13.58 52.048 14.364 52.16 14.844L52.928 14.604C52.816 14.124 52.512 13.356 52.224 12.796L51.488 13.004ZM55.824 14.844C56.112 14.38 56.432 13.692 56.736 13.052L55.904 12.78C55.744 13.292 55.44 14.076 55.184 14.604L55.824 14.844ZM57.456 15.116H54.576V12.428H57.456V15.116ZM50.88 12.428H53.68V15.116H50.88V12.428ZM52.848 8.54V9.564H55.68C56.128 10.252 56.688 10.924 57.296 11.532H51.024C51.616 10.844 52.16 10.06 52.56 9.276L51.52 8.972C50.912 10.108 49.968 11.196 48.976 11.996H47.6V8.364H46.448V11.996H44.752V13.132H46.448V18.252C45.728 18.54 45.056 18.812 44.528 19.004L44.928 20.188L49.616 18.124L49.328 17.052C48.752 17.292 48.16 17.548 47.6 17.772V13.132H49.008V12.476C49.2 12.668 49.408 12.908 49.504 13.036C49.648 12.924 49.792 12.796 49.936 12.668V16.028H58.464V12.588C58.576 12.684 58.704 12.78 58.816 12.86C59.008 12.572 59.376 12.172 59.6 11.964C58.416 11.228 57.056 9.884 56.304 8.54H52.848Z" fill="#4F5D75"/>
</svg>
