<svg width="64" height="32" viewBox="0 0 64 32" fill="none" xmlns="http://www.w3.org/2000/svg">
<path d="M0 16C0 7.16344 7.16344 0 16 0H48C56.8366 0 64 7.16344 64 16C64 24.8366 56.8366 32 48 32H16C7.16344 32 0 24.8366 0 16Z" fill="#8ECAE6"/>
<path d="M9 15.7931L13.8276 22.069L23 10" stroke="white" stroke-width="3" stroke-linecap="round" stroke-linejoin="round"/>
<path d="M36.752 18.84H38.912V20.504H36.752V18.84ZM38.912 15.288H36.752V13.656H38.912V15.288ZM38.912 17.912H36.752V16.216H38.912V17.912ZM33.056 19.224H30.992V14.36H33.056V19.224ZM43.296 20.504H40.032V18.84H42.544V17.912H40.032V16.216H42.544V15.288H40.032V13.656H42.8V12.648H40.272C40.512 12.152 40.784 11.576 41.04 11.032L39.92 10.76C39.76 11.304 39.472 12.04 39.2 12.648H37.248C37.744 11.928 38.16 11.128 38.544 10.28H42.144V11.96H43.216V9.24H38.96C39.12 8.792 39.264 8.312 39.408 7.832L38.272 7.608C38.128 8.168 37.952 8.712 37.744 9.24H34.544V11.96H35.584V10.28H37.296C36.496 11.976 35.408 13.4 34.064 14.424V13.336H31.104C31.408 12.216 31.648 11.016 31.824 9.784H34.512V8.696H28.896V9.784H30.704C30.288 12.552 29.616 15.112 28.448 16.808C28.656 17.064 28.992 17.64 29.12 17.912C29.456 17.448 29.744 16.92 30.016 16.36V21.512H30.992V20.264H34.064V14.632C34.304 14.856 34.64 15.192 34.784 15.384C35.072 15.144 35.36 14.904 35.632 14.632V22.216H36.752V21.528H43.296V20.504ZM46.528 10.568H57.424V12.904H58.64V9.448H52.592V7.624H51.36V9.448H45.36V12.904H46.528V10.568ZM52.592 17.368H57.328V16.264H52.592V13.608H56.672V12.488H47.408V13.608H51.376V20.312C50.064 19.816 49.04 18.904 48.432 17.224C48.592 16.552 48.72 15.848 48.816 15.096L47.6 14.984C47.248 17.848 46.384 20.12 44.608 21.496C44.896 21.672 45.392 22.088 45.584 22.296C46.624 21.384 47.408 20.2 47.968 18.728C49.424 21.432 51.808 22.008 55.12 22.008H58.832C58.88 21.656 59.088 21.096 59.28 20.808C58.512 20.824 55.76 20.824 55.184 20.824C54.256 20.824 53.376 20.776 52.592 20.632V17.368Z" fill="white"/>
</svg>
