<svg width="18" height="18" viewBox="0 0 18 18" fill="none" xmlns="http://www.w3.org/2000/svg">
<g clip-path="url(#clip0)">
<path d="M0.67271 8.69265C0.67308 8.44987 0.872922 8.25794 1.11424 8.25794H1.11424H1.11424H1.11425H1.11425H1.11426H1.11426H1.11426H1.11427H1.11427H1.11427H1.11428H1.11428H1.11429H1.11429H1.11429H1.1143H1.1143H1.11431H1.11431H1.11432H1.11432H1.11433H1.11433H1.11433H1.11434H1.11434H1.11435H1.11435H1.11435H1.11436H1.11436H1.11437H1.11437H1.11438H1.11438H1.11439H1.11439H1.1144H1.1144H1.11441H1.11441H1.11442H1.11443H1.11443H1.11444H1.11445H1.11445H1.11446H1.11447H1.11447H1.11448H1.11448H1.11449H1.11449H1.11449H1.1145H1.1145H1.1145H1.11451H1.11451H1.11452H1.11452H1.11452H1.11453H1.11453H1.11454H1.11454H1.11454H1.11455H1.11455H1.11456H1.11456H1.11457H1.11457H1.11457H1.11458H1.11458H1.11459H1.11459H1.1146H1.1146H1.11461H1.11461H1.11462H1.11462H1.11463H1.11463H1.11463H1.11464H1.11464H1.11465H1.11466H1.11466H1.11467H1.11467H1.11468H1.11468H1.11469H1.11469H1.1147H1.1147H1.11471H1.11471H1.11472H1.11472H1.11473H1.11474H1.11474H1.11475H1.11475H1.11476H1.11476H1.11477H1.11478H1.11478H1.11479H1.1148H1.1148H1.11481H1.11481H1.11482H1.11483H1.11483H1.11484H1.11485H1.11485H1.11486H1.11487H1.11487H1.11488H1.11489H1.11489H1.1149H1.11491H1.11491H1.11492H1.11493H1.11493H1.11494H1.11495H1.11496H1.11496H1.11497H1.11498H1.11499H1.11499H1.115H1.11501H1.11502H1.11502H1.11503H1.11504H1.11505H1.11505H1.11506H1.11507H1.11508H1.11509H1.1151H1.1151H1.11511H1.11512H1.11513H1.11514H1.11515H1.11515H1.11516H1.11517H1.11518H1.11519H1.1152H1.11521H1.11521H1.11522H1.11523H1.11524H1.11525H1.11526H1.11527H1.11528H1.11529H1.1153H1.11531H1.11532H1.11533H1.11534H1.11535H1.11535H1.11536H1.11537H1.11538H1.11539H1.1154H1.11541H1.11542H1.11543H1.11544H1.11546H1.11547H1.11548H1.11549H1.1155H1.11551H1.11552H1.11553H1.11554H1.11555H1.11556H1.11557H1.11558H1.11559H1.11561H1.11562H1.11563H1.11564H1.11565H1.11566H1.11567H1.11568H1.1157H1.11571H1.11572H1.11573H1.11574H1.11576H1.11577H1.11578H1.11579H1.1158H1.11582H1.11583H1.11584H1.11585H1.11587H1.11588H1.11589H1.1159H1.11592H1.11593H1.11594H1.11595H1.11597H1.11598H1.11599H1.11601H1.11602H1.11603H1.11605H1.11606H1.11607H1.11609H1.1161H1.11612H1.11613H1.11614H1.11616H1.11617H1.11619H1.1162H1.11621H1.11623H1.11624H1.11626H1.11627H1.11629H1.1163H1.11631H1.11633H1.11634H1.11636H1.11637H1.11639H1.1164H1.11642H1.11643H1.11645H1.11647H1.11648H1.1165H1.11651H1.11653H1.11654H1.11656H1.11658H1.11659H1.11661H1.11662H1.11664H1.11666H1.11667H1.11669H1.11671H1.11672H1.11674H1.11676H1.11677H1.11679H1.11681H1.11682H1.11684H1.11686H1.11687H1.11689H1.11691H1.11693H1.11694H1.11696H1.11698H1.117H1.11701H1.11703H1.11705H1.11707H1.11709H1.1171H1.11712H1.11714H1.11716H1.11718H1.1172H1.11722H1.11723H1.11725H1.11727H1.11729H1.11731H1.11733H1.11735H1.11737H1.11739H1.11741H1.11743H1.11745H1.11747H1.11749H1.11751H1.11753H1.11755H1.11757H1.11759H1.11761H1.11763H1.11765H1.11767H1.11769H1.11771H1.11773H1.11775H1.11777H1.11779H1.11781H1.11783H1.11786H1.11788H1.1179H1.11833L5.56384 8.28342C5.56393 8.28342 5.56402 8.28342 5.56411 8.28342L5.56427 8.28342L5.56384 8.35842L0.67271 8.69265ZM0.67271 8.69265C0.672713 8.69242 0.672717 8.6922 0.672721 8.69198L0.747709 8.69332H0.672709C0.672709 8.6931 0.672709 8.69287 0.67271 8.69265ZM18.0751 7.20123H18.075L18.0457 12.7194C18.0457 12.7194 18.0457 12.7194 18.0457 12.7195L18.0457 12.7198L17.9707 12.7194C17.9707 12.9196 17.8057 13.0798 17.6042 13.0798H16.8601C16.6585 13.0798 16.4936 12.916 16.4936 12.7158C16.4936 12.5156 16.6585 12.3518 16.8601 12.3518L18.0751 7.20123ZM18.0751 7.20123L18.075 7.19831C18.0706 7.06965 18.0145 6.94305 17.912 6.85891L15.2879 4.70045L15.2401 4.75823L15.2877 4.70031L15.2879 4.70043C15.2083 4.63458 15.1107 4.59951 15.0055 4.59951H11.9944V3.36402C11.9944 3.12191 11.7954 2.925 11.5528 2.925H2.21747C1.97495 2.925 1.77595 3.12191 1.77595 3.36402V6.02867C1.77595 6.27079 1.97495 6.4677 2.21747 6.4677C2.46 6.4677 2.659 6.27079 2.659 6.02867V3.80305H11.115V12.284H8.18448C7.94196 12.284 7.74296 12.4809 7.74296 12.7231C7.74296 12.9652 7.94196 13.1621 8.18448 13.1621H12.6597C12.9023 13.1621 13.1013 12.9652 13.1013 12.7231C13.1013 12.4809 12.9023 12.284 12.6597 12.284H11.998V5.47755H14.8503L17.1918 7.40355L17.1667 12.2768L18.0751 7.20123ZM13.4905 12.3383L13.4902 12.3386C13.1615 12.6651 12.9769 13.0917 12.9769 13.5494C12.9769 14.0067 13.1576 14.4336 13.4905 14.7605L13.4908 14.7608C13.8234 15.0835 14.2561 15.2625 14.7159 15.2625C15.6592 15.2625 16.4256 14.4934 16.4256 13.5494C16.4256 12.6054 15.6592 11.8363 14.7159 11.8363C14.2564 11.8363 13.8197 12.0151 13.4905 12.3383ZM16.2945 7.3853L16.2943 7.38518L15.1924 6.39988C15.1922 6.39967 15.192 6.39946 15.1917 6.39925C15.111 6.32388 15.0046 6.28493 14.8955 6.28493H13.0153C12.7727 6.28493 12.5737 6.48184 12.5737 6.72396V9.70895C12.5737 9.95107 12.7727 10.148 13.0153 10.148H15.9988C16.2413 10.148 16.4403 9.95107 16.4403 9.70895V7.71046C16.4403 7.587 16.3871 7.46852 16.2945 7.3853ZM4.54001 12.3383L4.5397 12.3386C4.21096 12.6651 4.02641 13.0917 4.02641 13.5494C4.02641 14.0067 4.20704 14.4336 4.54 14.7605L4.54032 14.7608C4.87285 15.0835 5.30562 15.2625 5.76542 15.2625C6.70866 15.2625 7.47512 14.4934 7.47512 13.5494C7.47512 12.6054 6.70866 11.8363 5.76542 11.8363C5.30587 11.8363 4.86919 12.0151 4.54001 12.3383ZM5.55608 9.16147H5.55651L1.11014 9.13599L1.11029 9.13599C1.11038 9.13599 1.11048 9.13599 1.11057 9.13599L5.55608 9.16147ZM14.7159 14.3845C14.2499 14.3845 13.86 14.0014 13.86 13.5494C13.86 13.0974 14.2499 12.7143 14.7159 12.7143C15.1723 12.7143 15.5426 13.0878 15.5426 13.5494C15.5426 14.011 15.1723 14.3845 14.7159 14.3845ZM15.5573 9.26993H13.4568V7.15934H14.724L15.5573 7.90419V9.26993ZM5.76542 14.3845C5.29939 14.3845 4.90945 14.0014 4.90945 13.5494C4.90945 13.0974 5.29939 12.7143 5.76542 12.7143C6.22178 12.7143 6.59207 13.0878 6.59207 13.5494C6.59207 14.011 6.22178 14.3845 5.76542 14.3845ZM3.32071 12.284H2.659V11.3907C2.659 11.1486 2.46 10.9517 2.21747 10.9517C1.97495 10.9517 1.77595 11.1486 1.77595 11.3907V12.7231C1.77595 12.9652 1.97495 13.1621 2.21747 13.1621H3.32071C3.56323 13.1621 3.76223 12.9652 3.76223 12.7231C3.76223 12.4809 3.56323 12.284 3.32071 12.284ZM5.25399 10.3751C5.25399 10.133 5.05499 9.93609 4.81246 9.93609H0.366524C0.123999 9.93609 -0.075 10.133 -0.075 10.3751C-0.075 10.6172 0.123999 10.8141 0.366524 10.8141H4.81246C5.05449 10.8141 5.25399 10.6214 5.25399 10.3751ZM1.85828 7.48332H6.30421C6.54674 7.48332 6.74574 7.28642 6.74574 7.0443C6.74574 6.80218 6.54674 6.60527 6.30421 6.60527H1.85828C1.61575 6.60527 1.41675 6.80218 1.41675 7.0443C1.41675 7.28642 1.61575 7.48332 1.85828 7.48332Z" fill="white" stroke="white" stroke-width="0.15"/>
</g>
<defs>
<clipPath id="clip0">
<rect width="18" height="18" fill="white"/>
</clipPath>
</defs>
</svg>
