<svg width="64" height="32" viewBox="0 0 64 32" fill="none" xmlns="http://www.w3.org/2000/svg">
<path d="M0 16C0 7.16344 7.16344 0 16 0H48C56.8366 0 64 7.16344 64 16C64 24.8366 56.8366 32 48 32H16C7.16344 32 0 24.8366 0 16Z" fill="#F23030"/>
<path d="M23.0713 11.7574L18.8287 16L23.0713 20.2426L20.2429 23.0711L16.0002 18.8284L11.7576 23.0711L8.92916 20.2426L13.1718 16L8.92916 11.7574L11.7576 8.92893L16.0002 13.1716L20.2429 8.92893L23.0713 11.7574Z" fill="white"/>
<path d="M34.88 14.524V9.964H36.192V14.524H34.88ZM32.784 14.524V9.964H34.048V14.524H32.784ZM30.72 14.524V9.964H31.952V14.524H30.72ZM37.232 8.892H29.712V14.524H28.688V15.596H29.712V22.716H30.72V15.596H31.952V22.22H32.784V15.596H34.048V22.14H34.88V15.596H36.192V21.436C36.192 21.612 36.144 21.66 35.984 21.66C35.84 21.676 35.44 21.676 34.944 21.66C35.104 21.932 35.264 22.428 35.312 22.684C36.032 22.7 36.48 22.652 36.8 22.492C37.136 22.284 37.232 21.964 37.232 21.452V15.596H38.208V14.524H37.232V8.892ZM39.648 10.028H38.608V18.828H39.648V10.028ZM41.52 8.428V21.18C41.52 21.436 41.44 21.516 41.184 21.516C40.928 21.532 40.064 21.548 39.168 21.516C39.328 21.836 39.504 22.38 39.536 22.684C40.672 22.684 41.52 22.652 41.968 22.46C42.448 22.268 42.608 21.916 42.608 21.18V8.428H41.52ZM53.728 8.156C52.864 9.772 51.088 11.628 49.248 12.716C49.472 12.956 49.744 13.356 49.888 13.644C51.68 12.508 53.392 10.732 54.304 9.228C55.344 10.796 57.168 12.524 58.832 13.564C58.992 13.244 59.264 12.828 59.488 12.572C57.808 11.644 55.952 9.916 54.784 8.156H53.728ZM49.12 8.748L48.928 8.796H45.344V22.716H46.4V9.884H48.496C48.16 10.972 47.696 12.396 47.232 13.564C48.384 14.796 48.656 15.868 48.656 16.732C48.656 17.196 48.576 17.644 48.336 17.82C48.208 17.9 48.032 17.948 47.824 17.948C47.584 17.98 47.264 17.964 46.896 17.932C47.088 18.236 47.184 18.684 47.2 18.988C47.568 19.004 47.952 18.988 48.272 18.956C48.592 18.924 48.88 18.828 49.104 18.668C49.536 18.364 49.728 17.692 49.728 16.844C49.728 15.868 49.456 14.716 48.304 13.42C48.832 12.156 49.408 10.524 49.888 9.212L49.12 8.748ZM51.28 17.644C50.816 18.924 50.032 20.188 49.152 21.02C49.392 21.18 49.824 21.532 50.016 21.724C50.912 20.796 51.792 19.34 52.336 17.884L51.28 17.644ZM58.704 16.78V15.756H54.88V13.772H57.456V12.748H51.312V13.772H53.776V15.756H50.24V16.78H53.776V21.372C53.776 21.564 53.712 21.628 53.504 21.628C53.296 21.628 52.64 21.644 51.888 21.612C52.048 21.916 52.24 22.412 52.288 22.716C53.28 22.716 53.936 22.7 54.352 22.508C54.768 22.332 54.88 21.996 54.88 21.372V16.78H58.704ZM56.064 18.044C56.912 19.18 57.84 20.7 58.224 21.644L59.2 21.116C58.784 20.188 57.84 18.7 56.976 17.612L56.064 18.044Z" fill="white"/>
</svg>
