<svg width="18" height="18" viewBox="0 0 18 18" fill="none" xmlns="http://www.w3.org/2000/svg">
<path d="M14.8 2.6H11.456C11.12 1.672 10.24 1 9.2 1C8.16 1 7.28 1.672 6.944 2.6H3.6C2.72 2.6 2 3.32 2 4.2V15.4C2 16.28 2.72 17 3.6 17H14.8C15.68 17 16.4 16.28 16.4 15.4V4.2C16.4 3.32 15.68 2.6 14.8 2.6ZM9.2 2.6C9.64 2.6 10 2.96 10 3.4C10 3.84 9.64 4.2 9.2 4.2C8.76 4.2 8.4 3.84 8.4 3.4C8.4 2.96 8.76 2.6 9.2 2.6ZM5.2 5H9.2H13.2V3.8H15.2V9.8V15.8H3.2V9.8V3.8H5.2V5ZM9.2 13.8V12.8H13.2V13.8H9.2ZM9.2 9V8H13.2V9H9.2ZM6 9.8V7.4H5.2V6.6H6.8V9.8H6ZM7 11.4C7.328 11.4 7.6 11.672 7.6 12C7.6 12.16 7.536 12.312 7.432 12.416L6.096 13.8H7.6V14.6H5.2V13.864L6.8 12.2H5.2V11.4H7Z" fill="white"/>
</svg>
