<svg width="18" height="18" viewBox="0 0 18 18" fill="none" xmlns="http://www.w3.org/2000/svg">
<path d="M7.99967 15.1H10.6663C10.9056 15.1 11.0997 14.9059 11.0997 14.6667C11.0997 14.4275 10.9056 14.2333 10.6663 14.2333H7.99967C7.50357 14.2333 7.09967 13.8295 7.09967 13.3333V12C7.09967 11.7608 6.90557 11.5667 6.66634 11.5667C6.42711 11.5667 6.23301 11.7608 6.23301 12V13.3333C6.23301 14.3072 7.02578 15.1 7.99967 15.1Z" fill="white" stroke="white" stroke-width="0.2"/>
<path d="M11.2167 2.30848L11.2167 2.30847L15.2157 0.97547C15.3535 0.926295 15.5079 0.9 15.6663 0.9C16.4569 0.9 17.0997 1.54277 17.0997 2.33333V14.3333C17.0997 14.9493 16.7045 15.4953 16.1166 15.6909L11.2167 2.30848ZM11.2167 2.30848C10.629 2.50462 10.233 3.04984 10.233 3.66667V15.6667C10.233 16.4572 10.8758 17.1 11.6663 17.1C11.8236 17.1 11.978 17.0736 12.1177 17.0238C12.118 17.0237 12.1183 17.0236 12.1187 17.0235L16.1166 15.6909L11.2167 2.30848ZM15.498 1.79487L15.498 1.79487L15.4992 1.79445C15.5499 1.77682 15.6081 1.76667 15.6663 1.76667C15.9784 1.76667 16.233 2.02123 16.233 2.33333V14.3333C16.233 14.5748 16.0767 14.7906 15.8425 14.8692L11.8361 16.2045L11.8361 16.2045L11.8346 16.205C11.7826 16.2232 11.7245 16.2333 11.6663 16.2333C11.3542 16.2333 11.0997 15.9788 11.0997 15.6667V3.66667C11.0997 3.4244 11.2555 3.20888 11.4905 3.13091L11.4906 3.13087L15.498 1.79487Z" fill="white" stroke="white" stroke-width="0.2"/>
<path d="M16.5 1.5L11 3V16.5L16.5 15V1.5Z" fill="white"/>
<path d="M6.23301 4C6.23301 4.23923 6.42711 4.43333 6.66634 4.43333C6.90557 4.43333 7.09967 4.23923 7.09967 4V2.66667C7.09967 2.17056 7.50357 1.76667 7.99967 1.76667H15.6663C15.9056 1.76667 16.0997 1.57256 16.0997 1.33333C16.0997 1.0941 15.9056 0.9 15.6663 0.9H7.99967C7.02578 0.9 6.23301 1.69277 6.23301 2.66667V4Z" fill="white" stroke="white" stroke-width="0.2"/>
<path d="M7.83304 8.50108H1.49998C1.22399 8.50108 1 8.27708 1 8.00109C1 7.72509 1.22399 7.5011 1.49998 7.5011H7.83304C8.10903 7.5011 8.33301 7.72509 8.33301 8.00109C8.33301 8.27708 8.10903 8.50108 7.83304 8.50108Z" fill="white"/>
<path d="M5.33335 11.001C5.20531 11.001 5.07738 10.9523 4.97997 10.8544C4.78467 10.6589 4.78467 10.3423 4.97997 10.147L7.12662 8.00046L4.97997 5.85382C4.78467 5.65851 4.78467 5.34188 4.97997 5.14657C5.1754 4.95114 5.49204 4.95114 5.68734 5.14657L8.18724 7.64647C8.38255 7.84178 8.38255 8.15842 8.18724 8.35372L5.68734 10.8536C5.58932 10.9523 5.4614 11.001 5.33335 11.001Z" fill="white"/>
</svg>
