<svg width="18" height="18" viewBox="0 0 18 18" fill="none" xmlns="http://www.w3.org/2000/svg">
<path d="M16.4991 8.49998H10.166C9.89 8.49998 9.66602 8.27599 9.66602 7.99999C9.66602 7.72399 9.89 7.5 10.166 7.5H16.4991C16.775 7.5 16.999 7.72399 16.999 7.99999C16.999 8.27599 16.775 8.49998 16.4991 8.49998Z" fill="white"/>
<path d="M13.9999 10.9999C13.8718 10.9999 13.7439 10.9512 13.6465 10.8533C13.4512 10.6578 13.4512 10.3412 13.6465 10.1459L15.7931 7.99936L13.6465 5.85272C13.4512 5.65741 13.4512 5.34078 13.6465 5.14547C13.8419 4.95004 14.1585 4.95004 14.3538 5.14547L16.8537 7.64537C17.0491 7.84068 17.0491 8.15732 16.8537 8.35262L14.3538 10.8525C14.2558 10.9512 14.1279 10.9999 13.9999 10.9999Z" fill="white"/>
<path d="M6.33311 16.9992C6.19042 16.9992 6.05505 16.9792 5.9198 16.9372L1.90791 15.6006C1.36204 15.4099 1 14.9013 1 14.3327V2.33331C1 1.59799 1.59799 1 2.33331 1C2.47588 1 2.61125 1.02002 2.74662 1.06201L6.75838 2.39861C7.30438 2.58928 7.6663 3.09792 7.6663 3.6665V15.6659C7.6663 16.4012 7.06843 16.9992 6.33311 16.9992ZM2.33331 1.99995C2.14997 1.99995 1.99995 2.14997 1.99995 2.33331V14.3327C1.99995 14.4747 2.09528 14.6066 2.23126 14.654L6.22435 15.9846C6.25304 15.9939 6.29039 15.9993 6.33311 15.9993C6.51645 15.9993 6.66635 15.8492 6.66635 15.6659V3.6665C6.66635 3.52453 6.57102 3.39258 6.43504 3.34522L2.44195 2.0146C2.41326 2.00532 2.37591 1.99995 2.33331 1.99995Z" fill="white"/>
<path d="M11.1668 6.33354C10.8908 6.33354 10.6668 6.10955 10.6668 5.83356V2.83371C10.6668 2.37438 10.2929 2.00038 9.83359 2.00038H2.33396C2.05797 2.00038 1.83398 1.77639 1.83398 1.5004C1.83398 1.22442 2.05797 1.00043 2.33396 1.00043H9.83359C10.8449 1.00043 11.6668 1.82241 11.6668 2.83371V5.83356C11.6668 6.10955 11.4428 6.33354 11.1668 6.33354Z" fill="white"/>
<path d="M9.83456 14.9997H7.16794C6.89196 14.9997 6.66797 14.7757 6.66797 14.4997C6.66797 14.2237 6.89196 13.9997 7.16794 13.9997H9.83456C10.2939 13.9997 10.6678 13.6257 10.6678 13.1664V10.1666C10.6678 9.89061 10.8918 9.66663 11.1677 9.66663C11.4437 9.66663 11.6677 9.89061 11.6677 10.1666V13.1664C11.6677 14.1777 10.8459 14.9997 9.83456 14.9997Z" fill="white"/>
</svg>
