<svg width="18" height="18" viewBox="0 0 18 18" fill="none" xmlns="http://www.w3.org/2000/svg">
<g clip-path="url(#clip0)">
<path d="M7.04146 4.25345L6.57178 3.10028L5.5496 3.63068L6.01928 4.78385L7.04146 4.25345Z" fill="white"/>
<path d="M8.69287 2L7.59319 2.57141L8.06344 3.7244L8.72606 3.38092L9.92138 3.91424L2.90587 7.60876L1.82644 6.95607L2.95144 6.37387L2.48231 5.21897L0 6.50529V10.2512L3.375 12.2226V9.3338L5.625 10.6938V13.8385L8.71481 15.5L18 10.2601V6.15228L8.69287 2ZM2.25 10.1376L1.125 9.48363V7.97319L2.25 8.65318V10.1376ZM5.46863 9.15793L4.1445 8.35731L11.3625 4.55613L12.9026 5.2431L5.46863 9.15793ZM8.14612 13.7883L6.75 13.0391V11.3744L8.14612 12.2188V13.7883ZM8.70862 11.1179L6.70612 9.90712L14.3438 5.88562L16.101 6.66973L8.70862 11.1179ZM16.875 9.47538L9.27112 13.7667V12.2194L16.875 7.64241V9.47538Z" fill="white"/>
<path d="M4.99604 5.31314L4.52637 4.15997L3.50419 4.69037L3.97387 5.84354L4.99604 5.31314Z" fill="white"/>
</g>
<defs>
<clipPath id="clip0">
<rect width="18" height="18" fill="white"/>
</clipPath>
</defs>
</svg>
