<svg width="18" height="18" viewBox="0 0 18 18" fill="none" xmlns="http://www.w3.org/2000/svg">
<path d="M14.7 15.7535V14.3529V14.2529H14.6H11.5V12.8059H14.6H14.7V12.7059V11.3053L16.8606 13.5294L14.7 15.7535ZM2.5 13.5294V13.6294H2.6H8.2H8.3V13.5294C8.3 12.6874 8.48089 11.886 8.80328 11.1656L8.86297 11.0322L8.71702 11.0248L7.40502 10.9589L7.40502 10.9588H7.4C6.06793 10.9588 4.85646 11.1451 3.97451 11.4481C3.53403 11.5994 3.1703 11.7817 2.91469 11.9886C2.65999 12.1949 2.5 12.4367 2.5 12.7059V13.5294ZM9.7 13.5294C9.7 14.0743 9.80182 14.5985 9.98713 15.0765H1.1V12.7059C1.1 11.8526 1.77347 11.0552 2.91976 10.4652C4.06089 9.87789 5.64455 9.51176 7.4 9.51176C8.1939 9.51176 8.95542 9.58532 9.66071 9.724C10.254 9.84174 10.8007 9.99899 11.2896 10.1953C10.32 10.97 9.7 12.177 9.7 13.5294ZM7.4 2.1C8.22122 2.1 9.00941 2.4358 9.59101 3.0345C10.1727 3.63331 10.5 4.44606 10.5 5.29412C10.5 6.14217 10.1727 6.95493 9.59101 7.55373C9.00941 8.15244 8.22122 8.48824 7.4 8.48824C6.57878 8.48824 5.79059 8.15244 5.20899 7.55373C4.62729 6.95493 4.3 6.14217 4.3 5.29412C4.3 4.44606 4.62729 3.63331 5.20899 3.0345C5.79059 2.4358 6.57878 2.1 7.4 2.1ZM7.4 3.54706C6.94818 3.54706 6.51548 3.73185 6.1969 4.05979C5.87842 4.38764 5.7 4.83169 5.7 5.29412C5.7 5.75655 5.87842 6.2006 6.1969 6.52844C6.51548 6.85639 6.94818 7.04118 7.4 7.04118C7.85182 7.04118 8.28452 6.85639 8.6031 6.52844C8.92158 6.2006 9.1 5.75655 9.1 5.29412C9.1 4.83169 8.92158 4.38764 8.6031 4.05979C8.28452 3.73185 7.85182 3.54706 7.4 3.54706Z" fill="white" stroke="#4F5D75" stroke-width="0.2"/>
</svg>
