<svg width="18" height="18" viewBox="0 0 18 18" fill="none" xmlns="http://www.w3.org/2000/svg">
<g clip-path="url(#clip0)">
<path d="M15.4961 4.57629L15.1428 3.51733C15.0083 3.11401 14.6322 2.84302 14.2072 2.84302H11.2381V1.87634C11.2381 1.39319 10.8452 1 10.3622 1H7.64321C7.1603 1 6.76735 1.39319 6.76735 1.87634V2.84302H3.79836C3.37319 2.84302 2.99709 3.11401 2.86257 3.51733L2.50929 4.57629C2.42885 4.81738 2.46962 5.08435 2.61818 5.29053C2.76674 5.4967 3.0071 5.61987 3.26125 5.61987H3.63051L4.44325 15.67C4.50368 16.4158 5.13649 17 5.88417 17H12.2861C13.0337 17 13.6666 16.4158 13.7269 15.6699L14.5397 5.61987H14.7442C14.9983 5.61987 15.2387 5.4967 15.3872 5.29065C15.5358 5.08447 15.5766 4.81738 15.4961 4.57629ZM7.70485 1.9375H10.3006V2.84302H7.70485V1.9375ZM12.7925 15.5944C12.7713 15.8569 12.5488 16.0625 12.2861 16.0625H5.88417C5.62148 16.0625 5.39907 15.8569 5.37782 15.5944L4.57106 5.61987H13.5991L12.7925 15.5944ZM3.4623 4.68237L3.75197 3.81396C3.75856 3.79395 3.77724 3.78052 3.79836 3.78052H14.2072C14.2283 3.78052 14.2468 3.79395 14.2536 3.81396L14.5432 4.68237H3.4623Z" fill="white"/>
<path d="M11.2974 15.5612C11.3057 15.5617 11.3139 15.5618 11.3222 15.5618C11.5699 15.5618 11.7769 15.3677 11.7898 15.1174L12.23 6.66749C12.2435 6.40894 12.0447 6.18836 11.7863 6.17493C11.5271 6.16114 11.3073 6.36011 11.2937 6.61866L10.8537 15.0686C10.8402 15.3272 11.0389 15.5477 11.2974 15.5612Z" fill="white"/>
<path d="M6.23654 15.1185C6.25021 15.3684 6.457 15.5618 6.70419 15.5618C6.71273 15.5618 6.72152 15.5615 6.73019 15.561C6.98861 15.547 7.18673 15.326 7.17269 15.0675L6.71163 6.61754C6.6976 6.35899 6.47665 6.16087 6.21811 6.17503C5.95969 6.18907 5.76157 6.41002 5.7756 6.66856L6.23654 15.1185Z" fill="white"/>
<path d="M9.00781 15.5618C9.26672 15.5618 9.47656 15.3519 9.47656 15.093V6.64307C9.47656 6.38416 9.26672 6.17432 9.00781 6.17432C8.7489 6.17432 8.53906 6.38416 8.53906 6.64307V15.093C8.53906 15.3519 8.7489 15.5618 9.00781 15.5618Z" fill="white"/>
</g>
<defs>
<clipPath id="clip0">
<rect width="16" height="16" fill="white" transform="translate(1 1)"/>
</clipPath>
</defs>
</svg>
