<svg width="18" height="18" viewBox="0 0 18 18" fill="none" xmlns="http://www.w3.org/2000/svg">
<path d="M14.4444 14.5444H14.5444V14.4444V3.55556V3.45556H14.4444H3.55556H3.45556V3.55556V14.4444V14.5444H3.55556H14.4444ZM3.55556 2.1H14.4444C15.2451 2.1 15.9 2.74778 15.9 3.55556V14.4444C15.9 14.8305 15.7466 15.2007 15.4737 15.4737C15.2007 15.7466 14.8305 15.9 14.4444 15.9H3.55556C3.16952 15.9 2.79929 15.7466 2.52632 15.4737C2.25335 15.2007 2.1 14.8305 2.1 14.4444V3.55556C2.1 3.16952 2.25335 2.79929 2.52632 2.52632C2.79929 2.25335 3.16952 2.1 3.55556 2.1ZM9 10.6556C9.57089 10.6556 10.4333 10.7991 11.1504 11.0859C11.5088 11.2293 11.8247 11.406 12.0494 11.6134C12.2733 11.8201 12.4 12.0506 12.4 12.3056V12.7889H5.6V12.3056C5.6 12.0506 5.72669 11.8201 5.95064 11.6134C6.17529 11.406 6.49117 11.2293 6.84964 11.0859C7.56674 10.7991 8.42911 10.6556 9 10.6556ZM10.1667 8.61117C9.85729 8.92061 9.43761 9.09444 9 9.09444C8.56239 9.09444 8.14271 8.92061 7.83327 8.61117C7.52384 8.30174 7.35 7.88205 7.35 7.44444C7.35 7.00684 7.52384 6.58715 7.83327 6.27772C8.14271 5.96828 8.56239 5.79444 9 5.79444C9.43761 5.79444 9.85729 5.96828 10.1667 6.27772C10.4762 6.58715 10.65 7.00684 10.65 7.44444C10.65 7.88205 10.4762 8.30174 10.1667 8.61117Z" fill="white" stroke="#4F5D75" stroke-width="0.2"/>
</svg>
