<?xml version="1.0" standalone="no"?>
<!DOCTYPE svg PUBLIC "-//W3C//DTD SVG 1.1//EN" "http://www.w3.org/Graphics/SVG/1.1/DTD/svg11.dtd" >
<svg xmlns="http://www.w3.org/2000/svg">
<metadata>
<json>
<![CDATA[
{
	"fontFamily": "icomoon",
	"majorVersion": 1,
	"minorVersion": 0,
	"version": "Version 1.0",
	"fontId": "icomoon",
	"psName": "icomoon",
	"subFamily": "Regular",
	"fullName": "icomoon",
	"description": "Font generated by IcoMoon."
}
]]>
</json>
</metadata>
<defs>
<font id="icomoon" horiz-adv-x="1024">
<font-face units-per-em="1024" ascent="960" descent="-64" />
<missing-glyph horiz-adv-x="1024" />
<glyph unicode="&#x20;" horiz-adv-x="512" d="" />
<glyph unicode="&#xe900;" glyph-name="add" data-tags="add" d="M853.333 362.667h-256v-256h-170.667v256h-256v170.667h256v256h170.667v-256h256v-170.667z" />
<glyph unicode="&#xe901;" glyph-name="asending" data-tags="asending" d="M768 661.333h-128l170.667 170.667 170.667-170.667h-128v-597.333h-85.333v597.333zM341.333 746.667c-164.693 0-298.667-133.547-298.667-298.667s133.547-298.667 298.667-298.667c164.693 0 298.667 133.547 298.667 298.667s-133.547 298.667-298.667 298.667zM434.773 340.053l-136.107 78.507v157.44h64v-120.32l104.107-60.16-32-55.467z" />
<glyph unicode="&#xe902;" glyph-name="checked" data-tags="checkmark, tick, approve, submit" d="M927.936 687.008l-68.288 68.288c-12.608 12.576-32.96 12.576-45.536 0l-409.44-409.44-194.752 196.16c-12.576 12.576-32.928 12.576-45.536 0l-68.288-68.288c-12.576-12.608-12.576-32.96 0-45.536l285.568-287.488c12.576-12.576 32.96-12.576 45.536 0l500.736 500.768c12.576 12.544 12.576 32.96 0 45.536z" />
<glyph unicode="&#xe903;" glyph-name="close" data-tags="close" d="M813.709 629.019l-181.018-181.019 181.018-181.018-120.678-120.683-181.022 181.022-181.018-181.022-120.68 120.683 181.019 181.018-181.019 181.019 120.68 120.68 181.018-181.019 181.022 181.019 120.678-120.68z" />
<glyph unicode="&#xe904;" glyph-name="dealer" data-tags="dealer" d="M38.27 465.485c0.021 13.811 11.39 24.73 25.118 24.73v0 0h0.233l252.9-1.45c0.005 0 0.010 0 0.015 0h0.009l-0.024-4.267-278.251-19.014zM38.27 465.485c0 0.013 0 0.026 0.001 0.038l4.266-0.076h-4.267c0 0.013 0 0.026 0 0.038zM1028.272 550.33h-0.006l-1.667-313.923c0 0 0 0 0-0.006v-0.017l-4.267 0.023c0-11.389-9.387-20.503-20.85-20.503h-42.331c-11.469 0-20.85 9.318-20.85 20.708s9.381 20.708 20.85 20.708l69.12 293.010zM1028.272 550.33l-0.006 0.166c-0.25 7.319-3.442 14.521-9.273 19.308l-149.282 122.793c-4.528 3.746-10.081 5.741-16.065 5.741h-171.298v70.286c0 13.773-11.321 24.975-25.122 24.975h-531.077c-13.797 0-25.118-11.202-25.118-24.975v-151.589c0-13.774 11.321-24.976 25.118-24.976s25.118 11.202 25.118 24.976v126.613h481.052v-482.472h-166.714c-13.797 0-25.118-11.201-25.118-24.98 0-13.773 11.321-24.974 25.118-24.974h254.59c13.801 0 25.122 11.201 25.122 24.974 0 13.778-11.321 24.98-25.122 24.98h-37.643v387.211h162.264l133.205-109.568-1.428-277.234 51.678 288.744zM767.46 258.088l-0.017-0.017c-18.699-18.574-29.201-42.843-29.201-68.881 0-26.015 10.28-50.301 29.218-68.898l0.017-0.017c18.921-18.358 43.537-28.541 69.695-28.541 53.663 0 97.263 43.753 97.263 97.456s-43.6 97.456-97.263 97.456c-26.14 0-50.984-10.172-69.712-28.558zM926.976 539.858l-0.011 0.007-62.686 56.053c-0.011 0.012-0.023 0.024-0.040 0.036-4.591 4.288-10.644 6.504-16.85 6.504h-106.962c-13.801 0-25.122-11.202-25.122-24.976v-169.813c0-13.774 11.321-24.977 25.122-24.977h169.728c13.796 0 25.116 11.203 25.116 24.977v113.692c0 7.024-3.026 13.764-8.294 18.498zM258.276 258.088l-0.018-0.017c-18.702-18.574-29.2-42.843-29.2-68.881 0-26.015 10.276-50.301 29.218-68.898l0.018-0.017c18.917-18.358 43.537-28.541 69.695-28.541 53.66 0 97.263 43.753 97.263 97.456s-43.603 97.456-97.263 97.456c-26.143 0-50.986-10.172-69.712-28.558zM316.079 438.814h0.024l-252.941 1.45c0.005 0 0.011 0 0.016 0l252.9-1.45zM837.171 141.682c-26.51 0-48.691 21.794-48.691 47.508s22.181 47.508 48.691 47.508c25.964 0 47.030-21.248 47.030-47.508s-21.066-47.508-47.030-47.508zM885.038 432.644h-119.495v120.069h72.090l47.406-42.374v-77.695zM327.988 141.682c-26.512 0-48.695 21.794-48.695 47.508s22.183 47.508 48.695 47.508c25.962 0 47.027-21.248 47.027-47.508s-21.065-47.508-47.027-47.508zM188.912 261.177h-37.644v50.819c0 13.773-11.321 24.974-25.118 24.974s-25.118-11.201-25.118-24.974v-75.799c0-13.773 11.321-24.974 25.118-24.974h62.762c13.797 0 25.118 11.201 25.118 24.974 0 13.778-11.321 24.98-25.118 24.98zM298.894 369.772c0 13.773-11.321 24.975-25.118 24.975h-252.924c-13.797 0-25.118-11.202-25.118-24.975s11.321-24.974 25.118-24.974h252.924c13.769 0 25.118 10.962 25.118 24.974zM105.715 534.282h252.924c13.797 0 25.118 11.201 25.118 24.975s-11.321 24.976-25.118 24.976h-252.924c-13.797 0-25.118-11.202-25.118-24.976s11.321-24.975 25.118-24.975z" />
<glyph unicode="&#xe905;" glyph-name="descending" data-tags="descending" d="M853.333 234.667h128l-170.667-170.667-170.667 170.667h128v597.333h85.333v-597.333zM341.333 746.667c-164.693 0-298.667-133.547-298.667-298.667s133.547-298.667 298.667-298.667c164.693 0 298.667 133.547 298.667 298.667s-133.547 298.667-298.667 298.667zM434.773 340.053l-136.107 78.507v157.44h64v-120.32l104.107-60.16-32-55.467z" />
<glyph unicode="&#xe906;" glyph-name="edit" data-tags="edit" d="M883.52 659.544c16.64 16.638 16.64 44.367 0 60.152l-99.823 99.826c-15.787 16.638-43.516 16.638-60.151 0l-78.498-78.069 159.979-159.977 78.494 78.069zM128 223.979v-159.979h159.978l471.826 472.254-159.974 159.978-471.829-472.253z" />
<glyph unicode="&#xe907;" glyph-name="jome" data-tags="jome" d="M426.667 106.667v256h170.667v-256h213.333v341.333h128l-426.667 384-426.667-384h128v-341.333h213.333z" />
<glyph unicode="&#xe908;" glyph-name="list" data-tags="list" d="M841.956 812.089h-190.236c-19.115 52.793-69.177 91.022-128.341 91.022s-109.227-38.229-128.341-91.022h-190.236c-50.062 0-91.022-40.96-91.022-91.022v-637.156c0-50.062 40.96-91.022 91.022-91.022h637.156c50.062 0 91.022 40.96 91.022 91.022v637.156c0 50.062-40.96 91.022-91.022 91.022zM523.378 812.089c25.031 0 45.511-20.48 45.511-45.511s-20.48-45.511-45.511-45.511c-25.031 0-45.511 20.48-45.511 45.511s20.48 45.511 45.511 45.511zM295.822 675.556h455.111v68.267h113.778v-682.667h-682.667v682.667h113.778v-68.267zM523.378 174.933v56.889h227.556v-56.889h-227.556zM523.378 448v56.889h227.556v-56.889h-227.556zM341.333 402.489v136.533h-45.511v45.511h91.022v-182.044h-45.511zM398.222 311.467c18.66 0 34.133-15.474 34.133-34.133 0-9.102-3.641-17.749-9.557-23.666l-76.004-78.734h85.561v-45.511h-136.533v41.87l91.022 94.663h-91.022v45.511h102.4z" />
<glyph unicode="&#xe909;" glyph-name="log-in" data-tags="log-in" d="M455.092 100.978h151.702c13.614 0 24.656 11.042 24.656 24.65s-11.042 24.656-24.656 24.656h-151.702c-28.223 0-51.2 22.972-51.2 51.2v75.85c0 13.608-11.042 24.65-24.652 24.65s-24.652-11.042-24.652-24.65v-75.85c0-55.404 45.1-100.506 100.503-100.506zM638.106 828.673v0.001l227.499 75.833c7.839 2.798 16.623 4.293 25.634 4.293 44.976 0 81.545-36.566 81.545-81.541v-682.665c0-35.044-22.482-66.105-55.927-77.232l-278.75 761.311zM638.106 828.673c-33.434-11.158-55.962-42.175-55.962-77.266v-682.668c0-44.971 36.568-81.539 81.539-81.539 8.949 0 17.732 1.502 25.68 4.335 0.017 0.006 0.034 0.011 0.057 0.017l227.436 75.81-278.75 761.311zM881.664 857.892v0l0.068 0.024c2.884 1.003 6.195 1.58 9.506 1.58 17.755 0 32.239-14.482 32.239-32.237v-682.665c0-13.739-8.892-26.015-22.215-30.487l-228.005-75.992c-2.958-1.035-6.263-1.61-9.574-1.61-17.755 0-32.233 14.478-32.233 32.233v682.668c0 13.782 8.863 26.043 22.232 30.479l227.983 76.006zM938.667 874.667l-312.889-85.333v-768l312.889 85.333v768zM354.589 732.444c0-13.61 11.042-24.652 24.652-24.652s24.652 11.042 24.652 24.652v75.852c0 28.223 22.977 51.2 51.2 51.2h436.146c13.614 0 24.656 11.043 24.656 24.652s-11.042 24.652-24.656 24.652h-436.146c-55.404 0-100.503-45.1-100.503-100.504v-75.852zM445.613 476.383h-360.281c-15.701 0-28.443 12.743-28.443 28.444s12.743 28.444 28.443 28.444h360.281c15.701 0 28.443-12.743 28.443-28.444s-12.742-28.444-28.443-28.444zM303.408 334.165c-7.284 0-14.562 2.77-20.103 8.34-11.11 11.122-11.11 29.133 0 40.243l122.121 122.114-122.121 122.12c-11.11 11.111-11.11 29.124 0 40.235 11.118 11.118 29.131 11.118 40.241 0l142.217-142.217c11.111-11.111 11.111-29.124 0-40.235l-142.217-142.215c-5.576-5.615-12.853-8.385-20.138-8.385z" />
<glyph unicode="&#xe90a;" glyph-name="log-out" data-tags="log-out" d="M938.615 476.446h-360.283c-15.701 0-28.443 12.743-28.443 28.444s12.742 28.444 28.443 28.444h360.283c15.696 0 28.439-12.743 28.439-28.444s-12.743-28.444-28.439-28.444zM796.439 334.228c-7.287 0-14.564 2.77-20.105 8.34-11.11 11.122-11.11 29.133 0 40.243l122.118 122.114-122.118 122.12c-11.11 11.111-11.11 29.124 0 40.235 11.116 11.118 29.127 11.118 40.238 0l142.217-142.217c11.116-11.111 11.116-29.124 0-40.235l-142.217-142.215c-5.575-5.615-12.851-8.385-20.133-8.385zM360.284-7.066c-8.117 0-15.819 1.138-23.513 3.527l-228.232 76.038c-31.054 10.849-51.65 39.782-51.65 72.129v682.632c0 41.832 34.019 75.851 75.851 75.851 8.111 0 15.812-1.139 23.513-3.528l228.225-76.038c31.061-10.847 51.651-39.783 51.651-72.129v-682.633c0-41.83-34.012-75.85-75.844-75.85zM132.739 846.225c-10.43 0-18.964-8.534-18.964-18.964v-682.632c0-8.078 5.423-15.582 13.159-18.278l227.162-75.696c1.632-0.529 3.757-0.836 6.187-0.836 10.43 0 18.958 8.539 18.958 18.967v682.633c0 8.077-5.423 15.583-13.159 18.277l-227.162 75.697c-1.632 0.528-3.757 0.833-6.18 0.833zM635.267 599.692c-15.701 0-28.444 12.743-28.444 28.443v170.658c0 26.131-21.271 47.407-47.4 47.407h-426.646c-15.701 0-28.443 12.743-28.443 28.443s12.743 28.443 28.443 28.443h426.646c57.532 0 104.289-46.762 104.289-104.293v-170.658c0-15.701-12.743-28.443-28.444-28.443zM559.477 106.684h-151.701c-15.7 0-28.443 12.743-28.443 28.444s12.743 28.444 28.443 28.444h151.701c26.131 0 47.402 21.276 47.402 47.406v170.655c0 15.701 12.743 28.443 28.439 28.443 15.701 0 28.444-12.742 28.444-28.443v-170.655c0-57.532-46.751-104.294-104.285-104.294z" />
<glyph unicode="&#xe90b;" glyph-name="pallet" data-tags="pallet" d="M400.581 718.026l-26.72 65.603-58.151-30.174 26.72-65.603 58.151 30.174zM494.528 846.222l-62.56-32.507 26.752-65.592 37.696 19.54 68-30.34-399.105-210.177-61.408 37.131 64 33.121-26.688 65.701-141.216-73.177v-213.101l192-112.151v164.341l128-77.369v-178.898l175.776-94.521 528.224 298.092v233.689l-529.472 236.219zM128 383.283l-64 37.204v85.927l64-38.684v-84.447zM311.104 439.016l-75.328 45.546 410.624 216.245 87.615-39.081-422.91-222.71zM463.424 175.599l-79.424 42.621v94.703l79.424-48.037v-89.287zM495.424 327.515l-113.92 68.88 434.499 228.779 99.965-44.607-420.544-253.051zM960 420.956l-432.576-244.128v88.024l432.576 260.38v-104.276zM284.219 657.741l-26.719 65.603-58.151-30.174 26.72-65.603 58.15 30.174z" />
<glyph unicode="&#xe90c;" glyph-name="search" data-tags="search" d="M405.333 832c73.553 0 144.094-29.219 196.105-81.229s81.229-122.551 81.229-196.104c0-68.693-25.173-131.84-66.56-180.48l11.52-11.52h33.707l213.333-213.333-64-64-213.333 213.333v33.707l-11.52 11.52c-48.64-41.387-111.787-66.56-180.48-66.56-73.553 0-144.094 29.218-196.104 81.229s-81.229 122.551-81.229 196.105c0 73.553 29.219 144.094 81.229 196.104s122.551 81.229 196.104 81.229zM405.333 746.667c-106.667 0-192-85.333-192-192s85.333-192 192-192c106.667 0 192 85.333 192 192s-85.333 192-192 192z" />
<glyph unicode="&#xe90d;" glyph-name="signout" data-tags="signout" d="M836.267 63.801v85.367h-182.044v82.318h182.044v85.367l122.914-126.527-122.914-126.527zM142.222 190.327v-5.689h329.956v5.689c0 47.9 10.291 93.491 28.631 134.474l3.396 7.589-83.227 4.176c-75.78 0-144.699-10.598-194.872-27.836-25.058-8.607-45.751-18.978-60.292-30.748-14.49-11.736-23.591-25.492-23.591-40.806v-46.848zM551.822 190.327c0-30.999 5.792-60.82 16.335-88.013h-505.579v134.861c0 48.543 38.313 93.906 103.524 127.471 64.918 33.411 155.010 54.24 254.876 54.24 45.164 0 88.486-4.185 128.609-12.074 33.752-6.698 64.853-15.644 92.666-26.812-55.159-44.072-90.431-112.737-90.431-189.673zM420.978 840.533c46.718 0 91.558-19.103 124.644-53.163 33.092-34.066 51.711-80.302 51.711-128.547s-18.62-94.482-51.711-128.547c-33.087-34.060-77.926-53.163-124.644-53.163s-91.558 19.103-124.644 53.163c-33.092 34.065-51.711 80.302-51.711 128.547s18.619 94.482 51.711 128.547c33.087 34.059 77.926 53.163 124.644 53.163zM420.978 758.212c-25.704 0-50.319-10.512-68.443-29.169-18.118-18.651-28.268-43.913-28.268-70.22s10.15-51.569 28.268-70.219c18.124-18.657 42.739-29.169 68.443-29.169s50.319 10.512 68.443 29.169c18.118 18.65 28.268 43.912 28.268 70.219s-10.15 51.569-28.268 70.22c-18.124 18.656-42.739 29.169-68.443 29.169z" />
<glyph unicode="&#xe90e;" glyph-name="trashcan" data-tags="trashcan" d="M881.556 699.66l-20.099 60.243c-7.652 22.944-29.047 38.361-53.225 38.361h-168.909v54.993c0 27.486-22.352 49.854-49.829 49.854h-154.68c-27.472 0-49.827-22.368-49.827-49.854v-54.993h-168.903c-24.187 0-45.583-15.416-53.236-38.361l-20.098-60.243c-4.576-13.715-2.257-28.903 6.195-40.632s22.125-18.736 36.584-18.736h21.007l46.236-571.741c3.438-42.428 39.438-75.662 81.972-75.662h364.199c42.53 0 78.535 33.234 81.966 75.668l46.239 571.735h11.634c14.455 0 28.132 7.007 36.58 18.729 8.454 11.729 10.775 26.924 6.195 40.639zM438.32 849.778h147.669v-51.514h-147.669v51.514zM727.751 72.852c-1.206-14.933-13.864-26.63-28.809-26.63h-364.199c-14.944 0-27.597 11.696-28.806 26.63l-45.896 567.44h513.595l-45.887-567.44zM196.966 693.625l16.479 49.403c0.375 1.138 1.438 1.902 2.639 1.902h592.147c1.2 0 2.253-0.764 2.64-1.902l16.475-49.403h-630.38zM642.697 74.741c0.472-0.028 0.939-0.034 1.411-0.034 14.091 0 25.867 11.042 26.601 25.281l25.042 480.706c0.768 14.709-10.542 27.257-25.242 28.021-14.746 0.784-27.25-10.535-28.023-25.243l-25.031-480.708c-0.768-14.711 10.536-27.255 25.242-28.023zM354.79 99.925c0.778-14.217 12.542-25.219 26.604-25.219 0.486 0 0.986 0.017 1.479 0.046 14.701 0.796 25.972 13.369 25.173 28.075l-26.229 480.709c-0.798 14.709-13.368 25.979-28.076 25.174-14.701-0.799-25.972-13.368-25.174-28.076l26.222-480.708zM512.444 74.706c14.729 0 26.667 11.941 26.667 26.67v480.707c0 14.729-11.938 26.667-26.667 26.667s-26.667-11.938-26.667-26.667v-480.707c0-14.729 11.938-26.67 26.667-26.67z" />
<glyph unicode="&#xe90f;" glyph-name="user" data-tags="user" d="M821.726 132.585h5.689v630.832h-630.832v-630.832h625.143zM202.272 840.533h619.454c45.551 0 82.807-36.851 82.807-82.805v-619.454c0-21.965-8.727-43.025-24.252-58.556-15.531-15.525-36.591-24.252-58.556-24.252h-619.454c-21.961 0-43.023 8.727-58.552 24.252-15.529 15.531-24.253 36.591-24.253 58.556v619.454c0 21.961 8.724 43.023 24.253 58.552s36.591 24.253 58.552 24.253zM512 353.815c32.477 0 81.539-8.164 122.334-24.479 20.389-8.158 38.36-18.21 51.143-30.009 12.737-11.759 19.945-24.872 19.945-39.378v-27.494h-386.844v27.494c0 14.507 7.207 27.62 19.948 39.378 12.78 11.799 30.75 21.851 51.143 30.009 40.795 16.316 89.854 24.479 122.332 24.479zM578.372 470.12c-17.602-17.604-41.477-27.493-66.372-27.493s-48.77 9.889-66.374 27.493c-17.603 17.603-27.493 41.479-27.493 66.374s9.89 48.77 27.493 66.373c17.604 17.604 41.479 27.493 66.374 27.493s48.77-9.89 66.372-27.493c17.607-17.603 27.494-41.479 27.494-66.373s-9.887-48.771-27.494-66.374z" />
<glyph unicode="&#xe910;" glyph-name="bye" data-tags="bye" d="M773.776 493.22c-8.285 0-15.001-6.715-15.001-15.001s6.717-15.001 15.001-15.001c36.113 0 65.494-29.379 65.494-65.492v-225.384c0-36.113-29.381-65.492-65.494-65.492h-128.79c-2.812 0-5.567-0.792-7.951-2.282l-221.352-138.344c-0.346-0.216-0.644-0.402-1.248 0.058s-0.502 0.796-0.386 1.188l36.019 120.067c1.362 4.542 0.498 9.461-2.334 13.265-2.83 3.804-7.293 6.047-12.035 6.047h-64.394c-36.113 0-65.494 29.379-65.494 65.492v225.386c0 36.113 29.381 65.492 65.494 65.492h338.074c8.285 0 15.001 6.717 15.001 15.001 0 8.287-6.717 15.001-15.001 15.001h-338.074c-52.657 0-95.497-42.838-95.497-95.495v-225.384c0-52.657 42.84-95.495 95.497-95.495h44.232l-30.227-100.757c-3.756-12.519 0.532-25.732 10.921-33.661 5.597-4.27 12.203-6.429 18.842-6.429 5.687 0 11.395 1.584 16.507 4.78l217.704 136.066h124.487c52.657 0 95.497 42.838 95.497 95.495v225.384c0.004 52.657-42.836 95.495-95.493 95.495zM716.94 333.84c8.285 0 15.001 6.717 15.001 15.001s-6.717 15.001-15.001 15.001h-53.771c-8.285 0-15.001-6.717-15.001-15.001v-127.615c0-8.285 6.717-15.001 15.001-15.001h53.771c8.285 0 15.001 6.717 15.001 15.001s-6.717 15.001-15.001 15.001h-38.769v33.805h34.805c8.285 0 15.001 6.717 15.001 15.001s-6.717 15.001-15.001 15.001h-34.805v33.805zM467.898 364.428h-37.411c-8.285 0-15.001-6.715-15.001-15.001v-128.79c0-3.99 1.59-7.817 4.416-10.631 2.812-2.8 6.619-4.37 10.585-4.37h0.066c0.002 0 34.397 0.154 43.878 0.154 27.386 0 49.668 22.282 49.668 49.668 0 15.955-7.571 30.167-19.298 39.258 4.876 7.153 7.731 15.787 7.731 25.078 0.002 24.61-20.022 44.634-44.634 44.634zM467.898 334.426c8.069 0 14.633-6.565 14.633-14.631 0-8.069-6.565-14.633-14.633-14.633-2.746 0-22.41-0.036-22.41-0.036v29.301zM474.431 235.793c-5.308 0-18.406-0.048-28.943-0.090v39.386c2.92 0.012 28.943 0.034 28.943 0.034 10.843 0 19.666-8.821 19.666-19.666s-8.821-19.664-19.666-19.664zM576.398 205.636h0.038c8.267 0 14.979 6.693 15.001 14.965l0.15 61.354 38.381 58.961c4.52 6.945 2.554 16.237-4.388 20.758-6.943 4.518-16.235 2.554-20.756-4.388l-28.249-43.392-28.559 43.736c-4.53 6.939-13.827 8.887-20.762 4.36-6.937-4.53-8.889-13.825-4.358-20.764l38.687-59.247-0.15-61.304c-0.022-8.287 6.679-15.019 14.963-15.039zM319.771 628.722c10.357 36.253 29.521 66.962 62.132 99.575l98.143 98.143c0.39 0.39 0.92 0.448 0.914 0.504 9.593-9.293 14.935-21.758 15.041-35.097 0.106-13.343-5.030-25.888-14.465-35.323l-68.302-68.3c-5.859-5.859-5.859-15.357 0-21.214 2.928-2.93 6.769-4.394 10.607-4.394s7.679 1.464 10.607 4.394l254.511 254.507c9.969 9.971 25.5 11.467 35.353 3.406 5.661-4.63 8.975-11.151 9.335-18.364 0.356-7.119-2.328-14.087-7.363-19.122-0.002-0.002-0.004-0.004-0.004-0.004l-165.057-165.057c-5.859-5.859-5.859-15.355 0-21.214 2.928-2.928 6.769-4.394 10.607-4.394s7.679 1.464 10.607 4.394l187.829 187.829c5.036 5.034 12.009 7.725 19.122 7.363 7.213-0.36 13.735-3.676 18.366-9.335 8.061-9.853 6.563-25.382-3.406-35.353l-186.207-186.207c-5.859-5.859-5.859-15.355 0-21.214 2.928-2.928 6.769-4.392 10.607-4.392s7.679 1.464 10.607 4.392l165.067 165.067c5.034 5.032 12.003 7.717 19.118 7.359 7.211-0.36 13.733-3.676 18.364-9.335 8.061-9.853 6.565-25.382-3.406-35.353l-174.822-174.822c-5.859-5.859-5.859-15.357 0-21.214 2.928-2.93 6.769-4.394 10.607-4.394s7.679 1.464 10.607 4.394l119.523 119.525c0.002 0 0.002 0.002 0.004 0.002 5.034 5.034 12.001 7.723 19.124 7.363 7.211-0.36 13.733-3.676 18.364-9.335 8.061-9.853 6.565-25.382-3.406-35.353l-104.403-104.403c-5.859-5.859-5.859-15.355 0-21.214s15.357-5.859 21.214 0l104.403 104.403c20.736 20.736 23.114 53.929 5.414 75.565-6.837 8.357-15.901 14.469-25.968 17.716l0.582 0.584 19.972 19.972c20.736 20.734 23.114 53.927 5.414 75.565-7.507 9.177-17.7 15.645-28.959 18.588 10.243 19.682 8.795 43.998-5.192 61.097-9.921 12.127-24.534 19.528-40.092 20.304-10.205 0.508-20.286-1.842-29.121-6.631-3 11.059-9.415 21.064-18.456 28.461-21.638 17.7-54.829 15.323-75.565-5.414l-142.243-142.241c-2.050 18.236-10.283 35.043-23.666 48.004-11.809 11.441-31.099 11.065-43.004-0.836l-98.145-98.145c-35.921-35.921-58.091-71.684-69.766-112.548l-13.445-47.058c-9.797-34.293-28.307-65.748-53.525-90.966l-72.533-72.551c-5.859-5.859-5.859-15.357 0-21.214 2.928-2.93 6.769-4.394 10.607-4.394s7.679 1.464 10.607 4.394l72.539 72.539c28.817 28.815 49.962 64.758 61.159 103.939z" />
<glyph unicode="&#xe911;" glyph-name="arrow-left" data-tags="arrow-left" d="M195.994 512l310.835 310.835-72.397 72.397-434.432-434.432 434.432-434.432 72.397 72.397-310.835 310.835h828.006v102.4h-828.006z" />
<glyph unicode="&#xe912;" glyph-name="arrow-right" data-tags="arrow-right" d="M828.006 512l-310.835 310.835 72.397 72.397 434.432-434.432-434.432-434.432-72.397 72.397 310.835 310.835h-828.006v102.4z" />
<glyph unicode="&#xe913;" glyph-name="baby" data-tags="baby" d="M869.896 438.666l-0.020 0.020-187.854 172.188c-20.464 18.758-44.656 31.994-70.518 40.404 42.914 31.028 71.164 81.17 71.164 138.054-0.002 94.106-76.564 170.668-170.668 170.668s-170.666-76.562-170.666-170.666c0-56.886 28.25-107.026 71.164-138.054-25.862-8.408-50.054-21.646-70.518-40.404l-187.876-172.208c-16.584-15.23-26.104-36.876-26.104-59.398 0-44.438 36.166-80.604 82.126-80.604 21.208 0 41.98 8.604 56.98 23.604l76.48 76.48c1.976-21.308 5.58-41.904 10.13-62.018l-0.38-0.086c0.506-2.248 1.244-4.222 1.778-6.438 0.552-2.292 0.906-4.684 1.492-6.958l-76.834-106.666c-29.854-39.792-31.354-94.312-3.77-135.708l73.77-110.646c14.27-21.438 38.166-34.23 64.104-34.23 42.334 0 76.792 34.458 76.792 76.792v10.416c0 17.354-5.98 34.396-16.812 47.98l-59.458 74.292 33.542 25.146c3.284-2.29 6.67-4.092 10.032-6.010 1.394-0.796 2.736-1.75 4.144-2.484 6.934-3.614 14.008-6.31 21.154-8.372 2.016-0.586 4.042-1.028 6.078-1.49 7.020-1.586 14.076-2.632 21.156-2.74 0.508-0.008 0.992-0.196 1.5-0.196s0.992 0.188 1.5 0.196c7.080 0.106 14.138 1.154 21.158 2.74 2.036 0.46 4.058 0.904 6.072 1.486 7.148 2.060 14.222 4.76 21.156 8.376 1.406 0.734 2.75 1.688 4.144 2.484 3.362 1.92 6.748 3.722 10.032 6.010l33.52-25.146-59.438-74.312c-10.834-13.562-16.812-30.604-16.812-47.958v-10.416c0-42.334 34.458-76.792 76.98-76.792 25.75 0 49.646 12.792 63.896 34.208l74.626 111.938c27.084 40.604 25.604 94.146-3.438 132.896l-78 108.23c0.58 2.248 0.93 4.614 1.476 6.878 0.54 2.236 1.284 4.226 1.794 6.498l-0.382 0.086c4.55 20.106 8.156 40.708 10.132 62.018l76.48-76.48c15-15 35.77-23.604 58.5-23.604 44.438 0 80.604 36.166 80.604 80.604-0.004 22.518-9.524 44.164-26.108 59.392zM384 789.334c0 70.584 57.416 128 128 128s128-57.416 128-128c0-70.584-57.416-128-128-128s-128 57.416-128 128zM388.792 179.604c-9.312-7-15.25-17.23-16.708-28.77-1.458-11.562 1.73-22.938 9-32.020l59.438-74.27c4.812-6.042 7.48-13.626 7.48-21.334v-10.416c0-18.812-15.312-34.126-34.312-34.126-11.438 0-22.062 5.688-28.396 15.208l-73.792 110.666c-17.584 26.354-16.604 61.084 2.646 86.75l59.242 82.24c11.776-28.882 26.012-54.010 42.622-73.526l-27.22-20.402zM553.638 207.378c-3.454-2.516-6.922-4.68-10.406-6.56-3.148-1.68-6.312-3.232-9.518-4.414-2.084-0.776-4.172-1.46-6.26-2.012-4.322-1.13-8.682-1.844-13.066-2.020-1.594-0.062-3.182-0.062-4.776 0-4.382 0.178-8.74 0.89-13.062 2.020-2.092 0.552-4.18 1.24-6.266 2.016-3.204 1.18-6.36 2.73-9.506 4.406-3.488 1.88-6.96 4.046-10.416 6.566-28.114 20.328-52.67 60.096-68.36 112.622h219.994c-15.688-52.528-40.244-92.296-68.358-112.624zM711.020 189.77c18.458-24.626 19.396-58.354 2.312-83.958l-74.646-111.958c-6.312-9.5-16.938-15.188-28.562-15.188-18.812 0-34.126 15.312-34.126 34.126v10.416c0 7.708 2.666 15.292 7.48 21.312l59.416 74.292c7.292 9.084 10.48 20.458 9.020 32.020-1.458 11.542-7.396 21.77-16.73 28.77l-27.2 20.398c16.618 19.524 30.86 44.662 42.64 73.558l60.396-83.788zM813.876 341.334c-9.98 0-19.75 4.042-26.812 11.104l-110.646 110.646c-6.104 6.084-15.25 7.916-23.25 4.626-7.98-3.292-13.166-11.084-13.166-19.708 0-29.242-3.552-57.764-8.646-85.334h-238.712c-5.092 27.58-8.644 56.098-8.644 85.332 0 8.626-5.188 16.416-13.166 19.708-8 3.334-17.166 1.458-23.25-4.626l-110.646-110.646c-7.062-7.062-16.834-11.104-28.334-11.104-20.916 0-37.938 17.020-37.938 37.938 0 10.604 4.48 20.792 12.292 27.958l187.854 172.188c27.604 25.312 63.438 39.25 100.896 39.25h80.584c37.458 0 73.292-13.938 100.896-39.25l187.834-172.166c7.834-7.188 12.312-17.376 12.312-27.98 0-20.916-17.022-37.936-39.458-37.936z" />
<glyph unicode="&#xe914;" glyph-name="grave" data-tags="grave" d="M978.872 26.884c-0.108 1.707-0.431 3.341-1.006 4.94-0.234 0.665-0.503 1.276-0.808 1.886-0.647 1.311-1.491 2.497-2.461 3.647-0.431 0.503-0.808 1.042-1.293 1.509-0.198 0.18-0.305 0.413-0.503 0.575l-119.467 102.418v476.897c0 188.164-153.115 341.244-341.333 341.244s-341.333-153.079-341.333-341.244v-476.879l-119.485-102.418c-0.198-0.162-0.305-0.395-0.503-0.575-0.485-0.467-0.862-0.988-1.293-1.509-0.97-1.132-1.796-2.335-2.461-3.647-0.305-0.629-0.575-1.24-0.808-1.886-0.575-1.599-0.898-3.234-1.006-4.94 0-0.377-0.198-0.701-0.198-1.078v-71.86c0-9.935 8.048-17.965 17.965-17.965h898.246c9.917 0 17.965 8.030 17.965 17.965v71.86c0 0.377-0.198 0.701-0.216 1.060zM206.596 618.756c0 168.349 137 305.314 305.404 305.314s305.404-136.964 305.404-305.314v-467.178h-610.807v467.178zM195.279 115.649h633.443l83.842-71.86h-801.127l83.842 71.86zM943.158-28.070h-862.316v35.93h862.316v-35.93zM655.719 708.491h-89.825v71.86c0 9.935-8.048 17.965-17.965 17.965h-71.86c-9.917 0-17.965-8.030-17.965-17.965v-71.86h-89.825c-9.917 0-17.965-8.030-17.965-17.965v-71.86c0-9.935 8.048-17.965 17.965-17.965h89.825v-215.579c0-9.935 8.048-17.965 17.965-17.965h71.86c9.917 0 17.965 8.030 17.965 17.965v215.579h89.825c9.917 0 17.965 8.030 17.965 17.965v71.86c0 9.935-8.048 17.965-17.965 17.965zM637.754 636.632h-89.825c-9.917 0-17.965-8.030-17.965-17.965v-215.579h-35.93v215.579c0 9.935-8.048 17.965-17.965 17.965h-89.825v35.93h89.825c9.917 0 17.965 8.030 17.965 17.965v71.86h35.93v-71.86c0-9.935 8.048-17.965 17.965-17.965h89.825v-35.93z" />
<glyph unicode="&#xe915;" glyph-name="glasses" data-tags="glasses" d="M1024 514.156h-54.912c-27.727 82.312-105.486 141.834-197.026 141.834-93.652 0-172.98-62.248-198.95-147.522-16.428 10.857-37.494 17.583-61.124 17.583-23.623 0-44.685-6.723-61.115-17.58-25.976 85.274-105.317 147.518-198.967 147.518-91.54 0-169.293-59.523-197.015-141.834h-54.89v-42.666h45.338c-0.873-7.724-1.421-15.546-1.421-23.5 0-114.688 93.303-207.979 207.989-207.979s208 93.292 208 207.979c0 1.196-0.158 2.351-0.18 3.543h0.15c0 15.063 21.407 31.854 52.115 31.854 30.719 0 52.115-16.792 52.115-31.854h0.158c-0.022-1.19-0.18-2.347-0.18-3.543 0-114.688 93.292-207.979 207.979-207.979s208 93.292 208 207.979c0 7.954-0.548 15.776-1.421 23.5h45.359v42.668zM251.906 282.676c-91.156 0-165.323 74.167-165.323 165.312 0 91.167 74.167 165.334 165.323 165.334 91.167 0 165.334-74.167 165.334-165.334 0-91.145-74.167-165.312-165.334-165.312zM772.064 282.676c-91.145 0-165.312 74.167-165.312 165.312 0 91.167 74.167 165.334 165.312 165.334 91.167 0 165.334-74.167 165.334-165.334-0.002-91.145-74.169-165.312-165.334-165.312z" />
<glyph unicode="&#xe995;" glyph-name="cogs" data-tags="cogs, gears, preferences, settings, generate, control, options" d="M363.722 237.948l41.298 57.816-45.254 45.256-57.818-41.296c-10.722 5.994-22.204 10.774-34.266 14.192l-11.682 70.084h-64l-11.68-70.086c-12.062-3.418-23.544-8.198-34.266-14.192l-57.818 41.298-45.256-45.256 41.298-57.816c-5.994-10.72-10.774-22.206-14.192-34.266l-70.086-11.682v-64l70.086-11.682c3.418-12.060 8.198-23.544 14.192-34.266l-41.298-57.816 45.254-45.256 57.818 41.296c10.722-5.994 22.204-10.774 34.266-14.192l11.682-70.084h64l11.68 70.086c12.062 3.418 23.544 8.198 34.266 14.192l57.818-41.296 45.254 45.256-41.298 57.816c5.994 10.72 10.774 22.206 14.192 34.266l70.088 11.68v64l-70.086 11.682c-3.418 12.060-8.198 23.544-14.192 34.266zM224 96c-35.348 0-64 28.654-64 64s28.652 64 64 64 64-28.654 64-64-28.652-64-64-64zM1024 576v64l-67.382 12.25c-1.242 8.046-2.832 15.978-4.724 23.79l57.558 37.1-24.492 59.128-66.944-14.468c-4.214 6.91-8.726 13.62-13.492 20.13l39.006 56.342-45.256 45.254-56.342-39.006c-6.512 4.766-13.22 9.276-20.13 13.494l14.468 66.944-59.128 24.494-37.1-57.558c-7.812 1.892-15.744 3.482-23.79 4.724l-12.252 67.382h-64l-12.252-67.382c-8.046-1.242-15.976-2.832-23.79-4.724l-37.098 57.558-59.128-24.492 14.468-66.944c-6.91-4.216-13.62-8.728-20.13-13.494l-56.342 39.006-45.254-45.254 39.006-56.342c-4.766-6.51-9.278-13.22-13.494-20.13l-66.944 14.468-24.492-59.128 57.558-37.1c-1.892-7.812-3.482-15.742-4.724-23.79l-67.384-12.252v-64l67.382-12.25c1.242-8.046 2.832-15.978 4.724-23.79l-57.558-37.1 24.492-59.128 66.944 14.468c4.216-6.91 8.728-13.618 13.494-20.13l-39.006-56.342 45.254-45.256 56.342 39.006c6.51-4.766 13.22-9.276 20.13-13.492l-14.468-66.944 59.128-24.492 37.102 57.558c7.81-1.892 15.742-3.482 23.788-4.724l12.252-67.384h64l12.252 67.382c8.044 1.242 15.976 2.832 23.79 4.724l37.1-57.558 59.128 24.492-14.468 66.944c6.91 4.216 13.62 8.726 20.13 13.492l56.342-39.006 45.256 45.256-39.006 56.342c4.766 6.512 9.276 13.22 13.492 20.13l66.944-14.468 24.492 59.13-57.558 37.1c1.892 7.812 3.482 15.742 4.724 23.79l67.382 12.25zM672 468.8c-76.878 0-139.2 62.322-139.2 139.2s62.32 139.2 139.2 139.2 139.2-62.322 139.2-139.2c0-76.878-62.32-139.2-139.2-139.2z" />
</font>
</defs>
</svg>
